<?xml version="1.0" standalone="no"?>
<!DOCTYPE svg PUBLIC "-//W3C//DTD SVG 20010904//EN"
 "http://www.w3.org/TR/2001/REC-SVG-20010904/DTD/svg10.dtd">
<svg version="1.0" xmlns="http://www.w3.org/2000/svg"
 width="192.000000pt" height="192.000000pt" viewBox="0 0 192.000000 192.000000"
 preserveAspectRatio="xMidYMid meet">

<g transform="translate(0.000000,192.000000) scale(0.100000,-0.100000)"
fill="#000000" stroke="none">
<path d="M770 1801 c-429 -94 -714 -487 -669 -921 10 -100 54 -247 96 -320
198 -347 586 -513 973 -415 90 22 233 95 310 158 138 112 252 291 296 462 27
106 26 315 -4 417 -87 305 -303 523 -604 608 -107 31 -287 36 -398 11z m323
-197 c309 -80 513 -356 494 -669 -6 -98 -39 -216 -82 -289 -65 -110 -176 -212
-290 -266 -75 -36 -111 -38 -142 -8 -23 21 -23 22 -23 288 0 253 -1 269 -20
293 -29 36 -81 52 -125 37 -19 -6 -44 -23 -55 -37 -19 -24 -20 -40 -20 -288 0
-250 -1 -264 -21 -289 -29 -37 -69 -34 -165 13 -92 44 -195 134 -254 221 -112
166 -139 381 -72 575 71 205 251 369 461 420 78 19 240 18 314 -1z"/>
</g>
</svg>
