<svg width="248" height="129" viewBox="0 0 248 129" fill="none" xmlns="http://www.w3.org/2000/svg">
<path d="M42.2572 37.2947L29.6706 4.66138L17.1759 37.2947H42.2572ZM53.0719 65.2654L43.2826 40.184H16.1506L6.36123 65.2654H3.19189L28.4586 4.57764e-05H30.9759L56.2426 65.2654H53.0719Z" fill="white"/>
<path d="M92.4641 62.0948C90.7534 63.3388 88.8428 64.3015 86.7294 64.9855C84.6161 65.6681 82.4708 66.0415 80.2974 66.1041C78.4934 66.1654 76.6601 66.1041 74.7961 65.9175C72.9308 65.7321 71.1441 65.3121 69.4348 64.6588C67.7241 64.0068 66.2028 63.0908 64.8668 61.9081C63.5294 60.7281 62.4721 59.2054 61.6961 57.3401C60.9188 55.4748 60.5308 53.1761 60.5308 50.4401V18.6481H63.5148V50.0668C63.5148 53.4241 64.2134 56.0974 65.6121 58.0854C67.0108 60.0761 68.9681 61.4748 71.4854 62.2814C74.0028 63.0908 76.9708 63.4321 80.3894 63.3068C82.7508 63.1828 84.9268 62.7481 86.9161 62.0014C88.9054 61.2561 90.6134 60.2308 92.0441 58.9254C93.4734 57.6201 94.5614 56.1601 95.3081 54.5428C96.0534 52.9281 96.4268 51.2188 96.4268 49.4148V18.6481H99.5028V65.2641H96.4268V57.4334C95.4934 59.2975 94.1721 60.8521 92.4641 62.0948Z" fill="white"/>
<path d="M92.4641 62.0948C90.7534 63.3388 88.8428 64.3014 86.7294 64.9854C84.6161 65.6681 82.4708 66.0414 80.2974 66.1041C78.4934 66.1655 76.6601 66.1041 74.7961 65.9175C72.9308 65.7321 71.1441 65.3121 69.4348 64.6588C67.7241 64.0068 66.2028 63.0908 64.8668 61.9081C63.5294 60.7281 62.4721 59.2054 61.6961 57.3401C60.9188 55.4748 60.5308 53.1761 60.5308 50.4401V18.6481H63.5148V50.0668C63.5148 53.4241 64.2134 56.0974 65.6121 58.0854C67.0108 60.0761 68.9681 61.4748 71.4854 62.2814C74.0028 63.0908 76.9708 63.4321 80.3894 63.3068C82.7508 63.1828 84.9268 62.7481 86.9161 62.0014C88.9054 61.2561 90.6134 60.2308 92.0441 58.9254C93.4734 57.6201 94.5614 56.1601 95.3081 54.5428C96.0534 52.9281 96.4268 51.2188 96.4268 49.4148V18.6481H99.5028V65.2641H96.4268V57.4334C95.4934 59.2974 94.1721 60.8521 92.4641 62.0948Z" stroke="white" stroke-width="1.33333" stroke-miterlimit="10"/>
<path d="M142.157 26.992C141.317 25.3467 140.213 24.0414 138.848 23.076C137.479 22.1134 135.895 21.3974 134.092 20.932C132.289 20.4654 130.456 20.232 128.591 20.232C126.664 20.232 124.581 20.512 122.344 21.072C120.107 21.6307 117.931 22.3774 115.819 23.3094C113.704 24.2414 111.903 25.2987 110.409 26.4787V50.6267C110.409 52.804 110.953 54.7294 112.043 56.408C113.129 58.0854 114.575 59.4854 116.377 60.6027C118.18 61.7227 120.184 62.5467 122.391 63.0747C124.597 63.6027 126.788 63.836 128.964 63.7734C131.885 63.6494 134.417 63.06 136.563 62.0014C138.707 60.9454 140.385 59.3907 141.597 57.34C142.809 55.2894 143.415 52.7414 143.415 49.6947V33.0054C143.415 30.644 142.996 28.64 142.157 26.992ZM141.504 61.908C138.364 64.892 133.907 66.384 128.125 66.384C125.761 66.384 123.384 66.0414 120.992 65.3587C118.599 64.6747 116.455 63.712 114.559 62.468C112.663 61.2254 111.28 59.8267 110.409 58.272V85.1254L107.427 84.0054V18.648H110.409V23.4027C112.212 22.3467 114.093 21.3974 116.051 20.5587C118.009 19.72 120.013 19.052 122.065 18.5547C124.116 18.0574 126.135 17.7774 128.125 17.7147C131.915 17.5907 135.164 18.12 137.868 19.3C140.572 20.4814 142.637 22.2067 144.068 24.4747C145.497 26.744 146.212 29.556 146.212 32.912V49.0427C146.212 54.636 144.641 58.9254 141.504 61.908Z" fill="white"/>
<path d="M142.157 26.992C141.317 25.3467 140.213 24.0414 138.848 23.076C137.479 22.1134 135.895 21.3974 134.092 20.932C132.289 20.4654 130.456 20.232 128.591 20.232C126.664 20.232 124.581 20.512 122.344 21.072C120.107 21.6307 117.931 22.3774 115.819 23.3094C113.704 24.2414 111.903 25.2987 110.409 26.4787V50.6267C110.409 52.804 110.953 54.7294 112.043 56.408C113.129 58.0854 114.575 59.4854 116.377 60.6027C118.18 61.7227 120.184 62.5467 122.391 63.0747C124.597 63.6027 126.788 63.836 128.964 63.7734C131.885 63.6494 134.417 63.06 136.563 62.0014C138.707 60.9454 140.385 59.3907 141.597 57.34C142.809 55.2894 143.415 52.7414 143.415 49.6947V33.0054C143.415 30.644 142.996 28.64 142.157 26.992ZM141.504 61.908C138.364 64.892 133.907 66.384 128.125 66.384C125.761 66.384 123.384 66.0414 120.992 65.3587C118.599 64.6747 116.455 63.712 114.559 62.468C112.663 61.2254 111.28 59.8267 110.409 58.272V85.1254L107.427 84.0054V18.648H110.409V23.4027C112.212 22.3467 114.093 21.3974 116.051 20.5587C118.009 19.72 120.013 19.052 122.065 18.5547C124.116 18.0574 126.135 17.7774 128.125 17.7147C131.915 17.5907 135.164 18.12 137.868 19.3C140.572 20.4814 142.637 22.2067 144.068 24.4747C145.497 26.744 146.212 29.556 146.212 32.912V49.0427C146.212 54.636 144.641 58.9254 141.504 61.908Z" stroke="white" stroke-width="1.33333" stroke-miterlimit="10"/>
<path d="M185.604 62.0948C183.894 63.3388 181.982 64.3015 179.87 64.9855C177.756 65.6681 175.612 66.0415 173.436 66.1041C171.632 66.1654 169.8 66.1041 167.936 65.9175C166.072 65.7321 164.284 65.3121 162.576 64.6588C160.864 64.0068 159.343 63.0908 158.007 61.9081C156.67 60.7281 155.614 59.2054 154.836 57.3401C154.059 55.4748 153.671 53.1761 153.671 50.4401V18.6481H156.655V50.0668C156.655 53.4241 157.355 56.0974 158.752 58.0854C160.151 60.0761 162.108 61.4748 164.627 62.2814C167.143 63.0908 170.111 63.4321 173.53 63.3068C175.892 63.1828 178.067 62.7481 180.056 62.0014C182.044 61.2561 183.754 60.2308 185.186 58.9254C186.614 57.6201 187.702 56.1601 188.448 54.5428C189.194 52.9281 189.567 51.2188 189.567 49.4148V18.6481H192.643V65.2641H189.567V57.4334C188.634 59.2975 187.312 60.8521 185.604 62.0948Z" fill="white"/>
<path d="M185.604 62.0948C183.894 63.3388 181.982 64.3014 179.87 64.9854C177.756 65.6681 175.612 66.0414 173.436 66.1041C171.632 66.1655 169.8 66.1041 167.936 65.9175C166.072 65.7321 164.284 65.3121 162.576 64.6588C160.864 64.0068 159.343 63.0908 158.007 61.9081C156.67 60.7281 155.614 59.2054 154.836 57.3401C154.059 55.4748 153.671 53.1761 153.671 50.4401V18.6481H156.655V50.0668C156.655 53.4241 157.355 56.0974 158.752 58.0854C160.151 60.0761 162.108 61.4748 164.627 62.2814C167.143 63.0908 170.111 63.4321 173.53 63.3068C175.892 63.1828 178.067 62.7481 180.056 62.0014C182.044 61.2561 183.754 60.2308 185.186 58.9254C186.614 57.6201 187.702 56.1601 188.448 54.5428C189.194 52.9281 189.567 51.2188 189.567 49.4148V18.6481H192.643V65.2641H189.567V57.4334C188.634 59.2974 187.312 60.8521 185.604 62.0948Z" stroke="white" stroke-width="1.33333" stroke-miterlimit="10"/>
<path d="M1.81982 101.444H15.9758V103.319H3.90649V110.881H14.7052V112.756H3.90649V120.711H16.3692V122.585H1.81982V101.444Z" fill="white"/>
<path d="M1.81982 101.444H15.9758V103.319H3.90649V110.881H14.7052V112.756H3.90649V120.711H16.3692V122.585H1.81982V101.444Z" stroke="white" stroke-width="0.666667" stroke-miterlimit="10"/>
<path d="M34.3196 108.325C35.3983 109.424 35.9383 110.931 35.9383 112.847V122.585H33.881V113.331C33.881 111.839 33.4676 110.669 32.641 109.821C31.8143 108.975 30.665 108.552 29.193 108.552C27.5596 108.573 26.2543 109.076 25.2756 110.064C24.297 111.052 23.7383 112.383 23.597 114.057V122.585H21.5703V106.737H23.597V110.427C24.1423 109.197 24.9436 108.269 26.0023 107.644C27.061 107.02 28.3463 106.696 29.8583 106.677C31.753 106.677 33.241 107.227 34.3196 108.325Z" fill="white"/>
<path d="M34.3196 108.325C35.3983 109.424 35.9383 110.931 35.9383 112.847V122.585H33.881V113.331C33.881 111.839 33.4676 110.669 32.641 109.821C31.8143 108.975 30.665 108.552 29.193 108.552C27.5596 108.573 26.2543 109.076 25.2756 110.064C24.297 111.052 23.7383 112.383 23.597 114.057V122.585H21.5703V106.737H23.597V110.427C24.1423 109.197 24.9436 108.269 26.0023 107.644C27.061 107.02 28.3463 106.696 29.8583 106.677C31.753 106.677 33.241 107.227 34.3196 108.325Z" stroke="white" stroke-width="0.666667" stroke-miterlimit="10"/>
<path d="M53.5719 113.754C53.4706 112.102 52.9212 110.784 51.9239 109.807C50.9252 108.83 49.6199 108.339 48.0066 108.339C46.4132 108.339 45.0826 108.835 44.0146 109.822C42.9452 110.81 42.3292 112.12 42.1692 113.754H53.5719ZM53.6026 109.02C54.8919 110.583 55.4879 112.686 55.3866 115.327H42.1692C42.3092 117.02 42.9346 118.388 44.0439 119.426C45.1532 120.464 46.5239 120.983 48.1572 120.983C49.1652 120.983 50.1039 120.802 50.9706 120.439C51.8372 120.075 52.5839 119.56 53.2092 118.895L54.3586 120.046C53.5919 120.872 52.6692 121.512 51.5906 121.966C50.5119 122.42 49.3266 122.647 48.0372 122.647C46.5039 122.647 45.1426 122.31 43.9532 121.634C42.7639 120.958 41.8306 120.015 41.1559 118.806C40.4799 117.596 40.1426 116.215 40.1426 114.662C40.1426 113.13 40.4799 111.754 41.1559 110.532C41.8306 109.314 42.7639 108.366 43.9532 107.69C45.1426 107.014 46.4839 106.676 47.9759 106.676C50.4359 106.676 52.3119 107.458 53.6026 109.02Z" fill="white"/>
<path d="M53.5719 113.754C53.4706 112.102 52.9212 110.784 51.9239 109.807C50.9252 108.83 49.6199 108.339 48.0066 108.339C46.4132 108.339 45.0826 108.835 44.0146 109.822C42.9452 110.81 42.3292 112.12 42.1692 113.754H53.5719ZM53.6026 109.02C54.8919 110.583 55.4879 112.686 55.3866 115.327H42.1692C42.3092 117.02 42.9346 118.388 44.0439 119.426C45.1532 120.464 46.5239 120.983 48.1572 120.983C49.1652 120.983 50.1039 120.802 50.9706 120.439C51.8372 120.075 52.5839 119.56 53.2092 118.895L54.3586 120.046C53.5919 120.872 52.6692 121.512 51.5906 121.966C50.5119 122.42 49.3266 122.647 48.0372 122.647C46.5039 122.647 45.1426 122.31 43.9532 121.634C42.7639 120.958 41.8306 120.015 41.1559 118.806C40.4799 117.596 40.1426 116.215 40.1426 114.662C40.1426 113.13 40.4799 111.754 41.1559 110.532C41.8306 109.314 42.7639 108.366 43.9532 107.69C45.1426 107.014 46.4839 106.676 47.9759 106.676C50.4359 106.676 52.3119 107.458 53.6026 109.02Z" stroke="white" stroke-width="0.666667" stroke-miterlimit="10"/>
<path d="M64.3542 107.66C65.3316 107.024 66.5062 106.696 67.8782 106.677V108.581C66.2036 108.563 64.8582 109.051 63.8409 110.049C62.8222 111.047 62.2422 112.404 62.1009 114.117V122.585H60.0742V106.737H62.1009V110.427C62.6249 109.217 63.3769 108.295 64.3542 107.66Z" fill="white"/>
<path d="M64.3542 107.66C65.3316 107.024 66.5062 106.696 67.8782 106.677V108.581C66.2036 108.563 64.8582 109.051 63.8409 110.049C62.8222 111.047 62.2422 112.404 62.1009 114.117V122.585H60.0742V106.737H62.1009V110.427C62.6249 109.217 63.3769 108.295 64.3542 107.66Z" stroke="white" stroke-width="0.666667" stroke-miterlimit="10"/>
<path d="M80.5218 119.517C81.3885 119.002 82.0645 118.291 82.5485 117.383C83.0325 116.477 83.2738 115.458 83.2738 114.329C83.2738 113.179 83.0325 112.151 82.5485 111.243C82.0645 110.335 81.3885 109.626 80.5218 109.111C79.6552 108.598 78.6765 108.339 77.5872 108.339C76.4992 108.339 75.5205 108.598 74.6538 109.111C73.7872 109.626 73.1058 110.335 72.6125 111.243C72.1178 112.151 71.8712 113.179 71.8712 114.329C71.8712 115.478 72.1178 116.502 72.6125 117.399C73.1058 118.297 73.7818 119.002 74.6378 119.517C75.4952 120.03 76.4778 120.287 77.5872 120.287C78.6765 120.287 79.6552 120.03 80.5218 119.517ZM85.3005 106.737V120.923C85.3005 122.455 84.9778 123.797 84.3325 124.945C83.6872 126.095 82.7645 126.977 81.5658 127.593C80.3645 128.207 78.9792 128.514 77.4058 128.514C75.0672 128.514 72.8992 127.709 70.9032 126.095L71.8712 124.643C72.6778 125.349 73.5245 125.882 74.4112 126.246C75.2992 126.609 76.2672 126.79 77.3152 126.79C79.1312 126.79 80.5778 126.262 81.6565 125.203C82.7352 124.145 83.2738 122.727 83.2738 120.953V118.382C82.7098 119.49 81.9032 120.358 80.8552 120.983C79.8058 121.607 78.5965 121.921 77.2245 121.921C75.8125 121.921 74.5578 121.594 73.4592 120.937C72.3592 120.282 71.5032 119.377 70.8872 118.215C70.2725 117.055 69.9658 115.741 69.9658 114.267C69.9658 112.797 70.2725 111.486 70.8872 110.335C71.5032 109.187 72.3645 108.29 73.4738 107.645C74.5832 106.999 75.8432 106.677 77.2552 106.677C78.6258 106.677 79.8258 106.985 80.8552 107.599C81.8832 108.214 82.6885 109.086 83.2738 110.215V106.737H85.3005Z" fill="white"/>
<path d="M80.5218 119.517C81.3885 119.002 82.0645 118.291 82.5485 117.383C83.0325 116.477 83.2738 115.458 83.2738 114.329C83.2738 113.179 83.0325 112.151 82.5485 111.243C82.0645 110.335 81.3885 109.626 80.5218 109.111C79.6552 108.598 78.6765 108.339 77.5872 108.339C76.4992 108.339 75.5205 108.598 74.6538 109.111C73.7872 109.626 73.1058 110.335 72.6125 111.243C72.1178 112.151 71.8712 113.179 71.8712 114.329C71.8712 115.478 72.1178 116.502 72.6125 117.399C73.1058 118.297 73.7818 119.002 74.6378 119.517C75.4952 120.03 76.4778 120.287 77.5872 120.287C78.6765 120.287 79.6552 120.03 80.5218 119.517ZM85.3005 106.737V120.923C85.3005 122.455 84.9778 123.797 84.3325 124.945C83.6872 126.095 82.7645 126.977 81.5658 127.593C80.3645 128.207 78.9792 128.514 77.4058 128.514C75.0672 128.514 72.8992 127.709 70.9032 126.095L71.8712 124.643C72.6778 125.349 73.5245 125.882 74.4112 126.246C75.2992 126.609 76.2672 126.79 77.3152 126.79C79.1312 126.79 80.5778 126.262 81.6565 125.203C82.7352 124.145 83.2738 122.727 83.2738 120.953V118.382C82.7098 119.49 81.9032 120.358 80.8552 120.983C79.8058 121.607 78.5965 121.921 77.2245 121.921C75.8125 121.921 74.5578 121.594 73.4592 120.937C72.3592 120.282 71.5032 119.377 70.8872 118.215C70.2725 117.055 69.9658 115.741 69.9658 114.267C69.9658 112.797 70.2725 111.486 70.8872 110.335C71.5032 109.187 72.3645 108.29 73.4738 107.645C74.5832 106.999 75.8432 106.677 77.2552 106.677C78.6258 106.677 79.8258 106.985 80.8552 107.599C81.8832 108.214 82.6885 109.086 83.2738 110.215V106.737H85.3005Z" stroke="white" stroke-width="0.666667" stroke-miterlimit="10"/>
<path d="M91.2586 106.737H93.2852V122.586H91.2586V106.737ZM93.2852 101.157C93.5466 101.429 93.6786 101.767 93.6786 102.17C93.6786 102.573 93.5426 102.917 93.2706 103.198C92.9986 103.481 92.6692 103.621 92.2866 103.621C91.8839 103.621 91.5466 103.481 91.2746 103.198C91.0026 102.917 90.8652 102.573 90.8652 102.17C90.8652 101.767 91.0026 101.429 91.2746 101.157C91.5466 100.883 91.8839 100.749 92.2866 100.749C92.6906 100.749 93.0226 100.883 93.2852 101.157Z" fill="white"/>
<path d="M91.2586 106.737H93.2852V122.586H91.2586V106.737ZM93.2852 101.157C93.5466 101.429 93.6786 101.767 93.6786 102.17C93.6786 102.573 93.5426 102.917 93.2706 103.198C92.9986 103.481 92.6692 103.621 92.2866 103.621C91.8839 103.621 91.5466 103.481 91.2746 103.198C91.0026 102.917 90.8652 102.573 90.8652 102.17C90.8652 101.767 91.0026 101.429 91.2746 101.157C91.5466 100.883 91.8839 100.749 92.2866 100.749C92.6906 100.749 93.0226 100.883 93.2852 101.157Z" stroke="white" stroke-width="0.666667" stroke-miterlimit="10"/>
<path d="M107.577 120C108.554 119.345 109.216 118.422 109.558 117.233V115.054H104.446C103.054 115.054 101.996 115.286 101.27 115.749C100.545 116.214 100.182 116.91 100.182 117.837C100.182 118.785 100.529 119.546 101.225 120.121C101.921 120.696 102.844 120.982 103.993 120.982C105.404 120.982 106.598 120.656 107.577 120ZM109.588 122.585L109.558 119.924C108.933 120.853 108.116 121.542 107.108 121.996C106.1 122.45 104.94 122.677 103.63 122.677C102.561 122.677 101.618 122.47 100.801 122.057C99.9851 121.644 99.3545 121.074 98.9105 120.349C98.4678 119.622 98.2451 118.805 98.2451 117.898C98.2451 116.528 98.7745 115.448 99.8331 114.661C100.892 113.874 102.349 113.481 104.205 113.481H109.528V112.272C109.528 111.022 109.154 110.054 108.409 109.368C107.662 108.684 106.574 108.34 105.142 108.34C103.448 108.34 101.744 108.974 100.03 110.246L99.1238 108.854C100.192 108.108 101.21 107.558 102.178 107.205C103.146 106.853 104.254 106.677 105.505 106.677C107.421 106.677 108.902 107.156 109.952 108.113C111 109.072 111.534 110.397 111.554 112.09L111.585 122.585H109.588Z" fill="white"/>
<path d="M107.577 120C108.554 119.345 109.216 118.422 109.558 117.233V115.054H104.446C103.054 115.054 101.996 115.286 101.27 115.749C100.545 116.214 100.182 116.91 100.182 117.837C100.182 118.785 100.529 119.546 101.225 120.121C101.921 120.696 102.844 120.982 103.993 120.982C105.404 120.982 106.598 120.656 107.577 120ZM109.588 122.585L109.558 119.924C108.933 120.853 108.116 121.542 107.108 121.996C106.1 122.45 104.94 122.677 103.63 122.677C102.561 122.677 101.618 122.47 100.801 122.057C99.9851 121.644 99.3545 121.074 98.9105 120.349C98.4678 119.622 98.2451 118.805 98.2451 117.898C98.2451 116.528 98.7745 115.448 99.8331 114.661C100.892 113.874 102.349 113.481 104.205 113.481H109.528V112.272C109.528 111.022 109.154 110.054 108.409 109.368C107.662 108.684 106.574 108.34 105.142 108.34C103.448 108.34 101.744 108.974 100.03 110.246L99.1238 108.854C100.192 108.108 101.21 107.558 102.178 107.205C103.146 106.853 104.254 106.677 105.505 106.677C107.421 106.677 108.902 107.156 109.952 108.113C111 109.072 111.534 110.397 111.554 112.09L111.585 122.585H109.588Z" stroke="white" stroke-width="0.666667" stroke-miterlimit="10"/>
<path d="M241.613 23.6053C237.991 21.4493 231.219 18.2133 222.689 18.6826C218.885 18.892 212.936 19.2186 209.016 23.7146C208.408 24.412 205.535 27.7053 205.952 32.028C206.371 36.376 209.863 39.1226 211.969 40.78C213.991 42.3693 215.763 43.1133 219.308 44.6026C221.243 45.4133 221.547 45.4106 227.94 47.6706C232.267 49.2013 233.164 49.568 233.847 49.8586C237.308 51.332 239.037 52.0693 240.739 53.5773C241.571 54.316 243.639 56.1946 244.776 59.42C245.121 60.4 245.907 62.7066 245.443 65.5013C244.6 70.5746 240.279 73.436 238.551 74.58C235.425 76.6506 232.441 77.2333 230.117 77.688C227.272 78.244 225.047 78.248 222.361 78.1906C218.971 78.1173 216.672 77.98 215.137 77.872C207.093 77.304 201.383 76.9013 197.265 79.472C196.875 79.716 196.624 79.9346 196.408 80.1053C185.973 88.352 178.684 120.259 173.52 122.867C172.085 123.591 170.937 123.287 170.937 123.287C169.513 122.909 168.759 121.445 168.496 120.935C165.752 115.609 168.311 88.6466 167.991 82.0253C167.936 80.8933 167.732 79.024 166.419 78.096C165.129 77.1866 163.385 77.5866 162.883 77.704C160.633 78.2266 159.212 79.8946 158.565 80.7413C156.6 83.3186 155.612 85.7026 154.795 88.1746C153.231 92.9026 152.219 96.6066 151.984 97.472C150.243 103.893 149.293 107.521 146.953 111.745C145.881 113.68 144.511 115.753 142.279 116.189C141.16 116.408 140.027 116.176 139.305 115.82C135.868 114.127 136.263 106.883 136.359 95.78C136.491 80.2146 135.927 78.3106 134.787 77.9C131.084 76.568 119.473 90.8213 113.369 92.44C113.003 92.5373 112.645 92.616 112.645 92.616C109.941 92.6266 107.235 92.6333 104.529 92.6346C101.829 92.6386 76.032 91.5946 1 91.18" stroke="#45FD5C" stroke-width="4" stroke-miterlimit="10"/>
<path d="M3.90271 95.9153H2.81738V86.386H3.90271V95.9153Z" fill="#161633"/>
<path d="M6.81886 95.9153H5.66553V86.386H6.81886V95.9153Z" fill="#161633"/>
<path d="M9.81708 95.9153H8.67041V86.386H9.81708V95.9153Z" fill="#161633"/>
<path d="M13.1492 95.9153H11.9932V86.386H13.1492V95.9153Z" fill="#161633"/>
<path d="M16.4811 95.9153H15.4731V86.386H16.4811V95.9153Z" fill="#161633"/>
<path d="M20.0628 95.9153H19.1108V86.386H20.0628V95.9153Z" fill="#161633"/>
<path d="M24.644 95.9153H23.54V86.386H24.644V95.9153Z" fill="#161633"/>
<path d="M29.4506 95.9153H28.1279V86.386H29.4506V95.9153Z" fill="#161633"/>
<path d="M34.6 97.186H33.2773V87.6554H34.6V97.186Z" fill="#161633"/>
</svg>
